<?xml version="1.0" encoding="utf-8"?>
<!-- Created by UniConvertor 2.0rc5 (https://sk1project.net/) -->
<svg xmlns="http://www.w3.org/2000/svg" height="35.0px" width="15.0px" version="1.1" xmlns:xlink="http://www.w3.org/1999/xlink" id="b420ac76-359d-11ed-a655-a8a1598cb569">

<g>
	<path style="fill:#ffffff;" d="M 0.0,0.0 L 0.0,19.0 1.0,19.0 C 2.6239,16.9564 3.6428,16.1036 6.0,15.0 2.9629,9.3358 0.2945,6.5139 3.0,0.0 L 0.0,0.0 Z" />
	<path style="fill:#5d0101;" d="M 1.0,8.0 L 2.0,8.0 3.0,3.0 C 5.7944,3.8167 7.4544,4.4053 10.0,3.0 L 11.0,3.0 13.0,8.0 C 16.6665,-1.0914 1.3693,-3.339 1.0,8.0 Z" />
	<path style="fill:#ffffff;" d="M 12.0,0.0 C 14.7055,6.5139 12.0371,9.3358 9.0,15.0 11.4344,15.6514 12.2827,16.1602 14.0,18.0 L 15.0,18.0 15.0,0.0 12.0,0.0 Z" />
	<path style="fill:#ffc38b;" d="M 3.0,3.0 C 1.7262,7.3609 1.7861,10.6764 6.0,13.0 L 5.0,16.0 C 6.8006,16.5618 8.1218,16.8241 10.0,17.0 L 9.0,13.0 C 13.4428,10.5498 13.2183,7.1841 11.0,3.0 8.0397,3.9386 6.018,3.6299 3.0,3.0 Z" />
	<path style="fill:#010101;" d="M 4.0,6.0 L 5.0,7.0 4.0,6.0 M 10.0,6.0 L 11.0,7.0 10.0,6.0 Z" />
	<path style="fill:#e5a36f;" d="M 7.3333,7.6667 C 7.2778,7.7222 7.2222,8.7778 7.6667,8.3333 7.7222,8.2778 7.7778,7.2222 7.3333,7.6667 Z" />
	<path style="fill:#5d0101;" d="M 9.0,10.0 L 5.0,11.0 5.0,12.0 C 6.8782,11.8241 8.1994,11.5618 10.0,11.0 L 9.0,10.0 M 3.0,35.0 C 6.9399,33.4162 6.9525,30.9856 7.0,27.0 L 8.0,27.0 8.0,35.0 14.0,34.0 C 12.0921,28.4582 17.2189,22.4167 13.8356,17.3364 11.3635,13.6241 1.4,15.603 0.5278,20.0193 -0.531,25.38 4.3342,29.1225 3.0,35.0 Z" />
	<path style="fill:#015fc7;" d="M 3.0,16.0 C 1.8182,18.4297 1.2695,20.3127 1.0,23.0 L 5.0,22.0 6.0,26.0 C 8.0924,25.5943 8.0198,25.7833 9.0,24.0 L 10.0,24.0 C 10.7679,25.3141 10.6859,25.2321 12.0,26.0 L 12.0,21.0 C 9.6677,21.4771 9.3755,21.6466 9.0,24.0 L 8.0,24.0 C 9.2908,19.8447 11.7092,19.8447 13.0,24.0 L 14.0,24.0 C 13.9417,21.2155 13.6479,18.7092 13.0,16.0 10.4695,17.009 8.9459,18.0859 7.0,20.0 5.8464,17.7511 5.2489,17.1536 3.0,16.0 Z" />
	<path style="fill:#ffc901;" d="M 9.0,19.0 C 9.0,20.7968 9.0143,20.5215 10.0,22.0 L 11.0,22.0 C 11.9857,20.5215 12.0,20.7968 12.0,19.0 L 9.0,19.0 Z" />
	<path style="fill:#357d45;" d="M 3.3333,20.6667 C 3.2778,20.7222 3.2222,21.7778 3.6667,21.3333 3.7222,21.2778 3.7778,20.2222 3.3333,20.6667 Z" />
	<path style="fill:#5d0101;" d="M 8.0,20.0 L 8.0,24.0 9.0,24.0 C 8.8259,22.3148 8.683,21.506 8.0,20.0 Z" />
	<path style="fill:#357d45;" d="M 12.3333,20.6667 C 12.2778,20.7222 12.2222,21.7778 12.6667,21.3333 12.7222,21.2778 12.7778,20.2222 12.3333,20.6667 Z" />
	<path style="fill:#ffffff;" d="M 0.0,23.0 L 0.0,35.0 C 6.4289,32.8663 3.1552,26.8378 0.0,23.0 Z" />
	<path style="fill:#ffc389;" d="M 2.0,24.0 L 2.0,26.0 5.0,26.0 5.0,24.0 2.0,24.0 M 13.0,25.0 L 14.0,26.0 13.0,25.0 Z" />
	<path style="fill:#ffffff;" d="M 14.0,26.0 C 12.5473,28.7981 13.0468,31.3111 12.0,34.0 L 12.0,35.0 C 16.0173,34.1391 15.7601,29.055 14.0,26.0 M 7.0,27.0 C 6.9172,29.9077 6.7595,31.6921 5.0,34.0 L 5.0,35.0 C 8.8281,34.1797 8.7136,29.9743 7.0,27.0 Z" />
</g>
</svg>